<?xml version="1.0" encoding="utf-8"?>
<!-- Generator: Adobe Illustrator 14.0.0, SVG Export Plug-In . SVG Version: 6.00 Build 43363)  -->
<!DOCTYPE svg PUBLIC "-//W3C//DTD SVG 1.1//EN" "http://www.w3.org/Graphics/SVG/1.1/DTD/svg11.dtd">
<svg version="1.1" id="Layer_1" xmlns="http://www.w3.org/2000/svg" xmlns:xlink="http://www.w3.org/1999/xlink" x="0px" y="0px"
	 width="576px" height="576px" viewBox="0 0 576 576" enable-background="new 0 0 576 576" xml:space="preserve">
<path d="M332.616,103.103c-61.344,71.552,5.953,187.372-80.859,245.193c-26.714,17.788-62.014,23.611-93.949,16.7
	c-35.53-7.69-101.122-19.358-136.033,1.2c23.625-13.905,74.817,19.111,87.324,32.521c18.059,19.357,49.525,43.198,71.903,58.864
	c45.468,31.832,104.48,47.644,161.272,40.634c174.974-21.594,252.118-248.226,171.838-379.527c-0.357-0.583-0.707-1.157-1.068-1.726
	c-14.253-22.771-35.966-42.41-62.986-50.671c-9.314-2.845-18.953-4.175-28.612-4.175C387.769,62.118,353.864,78.326,332.616,103.103
	 M394.044,224.192c-7.996,0-14.475-18.72-14.475-41.813c0-23.093,6.479-41.814,14.475-41.814c7.992,0,14.473,18.721,14.473,41.814
	C408.517,205.472,402.036,224.192,394.044,224.192z M458.051,224.192c-7.994,0-14.477-18.72-14.477-41.813
	c0-23.093,6.482-41.814,14.477-41.814s14.476,18.721,14.476,41.814C472.526,205.472,466.045,224.192,458.051,224.192z
	 M426.177,295.404c-14.088,0-25.508-7.144-25.508-15.954c0-8.81,11.42-15.953,25.508-15.953c14.09,0,25.51,7.144,25.51,15.953
	C451.687,288.261,440.267,295.404,426.177,295.404z"/>
</svg>
