<svg xmlns="http://www.w3.org/2000/svg" viewBox="0 0 707.1 767.9"><style>.a{stroke-opacity:0.4;stroke-width:0.05;stroke:#000;}</style><path d="m428.6 311.5c15.9-18.9 37.5-32 55.2-49.2 28.9-22.8 67.8-47 105.3-29.5 24.6 13.5 38.9 42.8 35.6 70.6-2.1 32.9-22.2 60.7-38.2 88.2-17.4 20.6-33.8 47.8-33.2 74.5 11.6 4.8 23.8-5.8 34.1-10.9 2.9-2.5 42-14.6 56.5-25.3 26.3-17.9 55.2-31.5 86.5-37.8 9.1-1.3 27.1-8 30.5 5.1-5.6 25.2-25.4 45.9-36.2 69.5-15.5 30.8-23.3 72.8-60.2 85.5-12.1 7-43.3 3.9-47.8 6.4-5.1 16.4 20.5 25.4 10.9 41.8-19.9 16.1-48.5 15.9-72.9 20.9-13.6 4-50.8-1.6-25.6 13 23.6 17.4 13.5 51.7-17.2 51.2-25.9 7.9-46.4 29.2-51.6 55.9-8 30-34.9 48.5-58.5 65.8-1.5 22.3-31.7 26.2-43.8 43-11.8 14.9-29 27.7-47.7 31.9-24.5-1.9 0.7-14.3 9.2-14.4 20.2-9.3 28.9-25.4 46.9-38.9 25.8-10.3 26.7-36 51.9-47.9 17.8-13.1 30.8-32.1 34.9-54 10.3-32.3 42.1-49.8 73-57.8 19.1-12.9-15.9-30.9-15.8-44.6 11.9-21.2 48-9.4 68.9-18.4 10-6.5 37.4-1.1 38.8-15.8-8.5-10.5-16.4-23.1-11.4-37.2 14.9-14.6 39.6-1.2 56.9-12.5 35.4-15.9 37.4-60.1 57-89.1 8.8-15 24.6-41.9 29.8-52.6 7.3 3.7-11.7 0.1-17.3 4-30.3 5.9-58.1 19.5-83.5 36.7-15.5 11.9-50.3 20.6-56.5 25.3-14.3 7.3-33.5 20.9-48.4 7.7-6.3-15.5 2-33.5 7.5-48.3 12.1-26.5 34.6-46.5 45.3-73.9 18.5-28.3 25.8-70.8 0.4-97.3-19.7-23.9-56.1-17.2-79.1-1.9-28.1 15.1-49.5 39.2-74.8 58.2-5.2 6.1-10.3 14.2-15.3 2z" class="a"/><path d="m437.2 316.9c-9.4 5.2-21.3-0.7-21.7-6.7-5.3-20.7 9.8-40.3 9.7-61.1 7.4-24.8 11.2-53.9-6.3-75.7-14.7-19.9-41-29.8-65.1-29.1-11.5 4.1-29 19.4-35 23.2-3.7 2.7 17.9 9.7 21.5 20.7 14 18.1 27.9 45 14.9 66.8-10.1 11.5-36.7-2.9-38.4 16.5-7.2 25.3 23.9 46.5 13 71.5-14.8 20.7-60.6 24.1-46.3 59 7.2 21.1 4.8 49.2-11.4 65.3-19.7 20.4-40.4 42.3-39.7 72.8-6.2 28.8 7.1 58.6-5.1 86.7-12.4 33.5-25.3 68.4-48.6 96-21.6 15.8-42.6 34.8-42.1 64.1-13.6 37.8-45.8 63.3-69.4 94.4-11.8 14.5 26.5 6.7 37.4 4 45-9.2 89.9-20.8 136.2-18.9 22.9 2 48.1-5.1 69.1 6.8 6.7 16.7-11.9 6.2-20.1 4.5-51.5-0.8-103.6-1.3-153.6 12.5-25.8 1-62 24.3-82.1-0.5 2-23.8 26.6-36.4 38.1-55.4 24.1-21 34.8-51.6 41.4-81.4 12.5-26.3 46.3-35.1 54.7-64.9 17.5-35.4 40.2-74.2 31.3-115.1-0.3-33.7 2.2-72.2 29-96.3 16.6-14 28.8-31.3 28-53.9-7.3-24.4-12.1-58.1 18.5-68.7 17.7-4.2 34.7-20.1 21.3-37.9-9.5-18.2-18.7-42.2-4.1-60.3 8.3-14.2 38.3 3.5 36.8-17.1 0-22.3-14.1-43.3-31-56.8-15.7-4.4-11.3-23.4 1.1-28.7 20.3-19.9 49.4-26.6 75-12 39.8 13.5 58.9 62.4 43.8 100.6-1.4 21.2-11 41.2-12.7 62.1-0.7 3.7 4.1 5.2-0.2 4.3 8.4-2.6 16.7-2.1 12.3 9z" class="a"/><path d="m464.4 313.5c5.3-4 12.3-4.4 18.3-7.3 6-3.4 11.4-8 15.6-13.5 1.6-4.4 5.5-7 8.8-10 3.2-4.5 8.3-7.7 13.9-8.1 5.2-1.3 10.6-0.9 15.8-0.8 5.6 2.1 7.9 8.6 8.3 14.1 0.7 4.5 0.8 10.4-4 12.8-6.6 3.9-15.2 3.8-20.9 9.3-3.3 5.1-8.8 9.8-15.2 9.1-3.5-0.6-6.7 2.2-10.1 0.4-0.2 2.4-5.1 6.8-8.5 4.3-4.6-0.8-7.9 3.3-11.4 5.4-3.9 2.7-9.7 2.7-13.4-0.4-1.6-1.1-1.5-5.1 0.2-1.8-2.4 0-7.7 1.5-9.6-1.6-0.9-4.6 3.6-8 7.2-10 3.7-1.5 8.6-5.1 12.3-3.1 1.3 4.3-4 3.1-6.4 4.6-3.1 1.2-6.9 3.5-8.6 5.8-0.3 3-3.1-0.5 0.1 0.3 3.5-0.2 7.1 0 8.7 3.6 4.6 1.8 8.6-1.9 12.2-4.4 3.2-3.3 8.2-3 12.3-2-2.7 1.9 2.2-3 2.8-4 3.1-1.5 6.8-0.1 10-1.4 3.7 0.3 7.8-0.1 10.5-3.1 2.8-2.5 4.4-6.2 8-7.8 5.7-3.5 12.7-3.8 18.4-7.3 3.5-3.3 1.1-8.9 0.8-13.1-1.2-5.4-6.8-7.1-11.6-6-4.6 0.5-9.6 0.6-13.8 2.9-3.7 2.5-5.9 6.7-9.9 8.9-2.5 2.9-3.8 6.7-6.7 9.2-5.9 6.4-13.2 11.3-21.2 14.6-3.6 1.2-8.2 3.5-11.6 3.1-0.7-0.7-1.4-1.8-1.2-2.8z" class="a"/><path d="m558.9 311c4.8-3.3 9.4-7 14.5-9.8 3.9-1.4 8.6-0.8 11.9 1.8 2.5 2.8 1.6 7.2 1.2 10.6-1.2 3.8-4.3 6.6-7.5 8.9-1.9 3.8-2.4 8.1-2.6 12.2 0 4 0.2 8.2-1.7 11.9-1 4.1-1.3 8.5 0 12.6 1.2 5.8-3.3 10.4-6.8 14.4-2.5 3.6-4 7.7-5.7 11.7-1 3.4-1 7.9-5.3 8.6-3.8 2.5-6.7-2.6-9-5-2.8-3.2-2.2-7.7-1.8-11.6 0.8-6.5 4.3-12.1 7.6-17.5 0.9-1.6 2.9-2.2 2.2-2.7 1-3.5-1.7-6-3.6-8.5-2.2-2.8-3.8-6-6.2-8.7-2.2-3.2-0.3-7.1 0.5-10.4 1.4-3.4 4.2-6.2 5.6-9.5-0.3-3.5 0.6-6.9 3.2-9.3 2.1-2.7 5.8-2.4 9-3.3 2.8 2 4.5 3.1 1.6 3.1-4 0.6-10.2 5.5-9.6 9.4 0 3.9-3.7 6.3-5.1 9.8-1.4 3-3.6 7.3-0.3 9.9 2.4 3.3 4.5 6.8 7.1 10 2.4 2.8 2.2 6.6 1.6 9.9-2.6 2.8-4.8 6-6.4 9.5-2.9 4.8-4.1 10.7-3.1 16.2 0.5 2 5.2 5.3 4.3 5.7-1.5 0.6 5.3-3.1 2.3-0.7 0.8-3.6 1.7-7.2 3.4-10.4 1.7-4.8 4.6-9.1 8.1-12.8 3-3.1 2.6-7.3 1.5-11-0.2-4.5 0.2-9.2 2.1-13.4 0.8-5-0.1-10.1 1.3-15.1 0.5-4 2.2-8.1 5.9-10.1 3.1-2.4 4.3-6.2 3.7-10.1-0.1-2.9-4.6-2.5-6.7-2.6-3.6 1.2-5.9 3.9-9.1 5.8-3.3 0.7-7.1 3.6-8.7-1.4 0 0 0.3 2.1 0.6 2.1z" class="a"/><path d="m437.2 363.1c-2 0.6-4.1 1.3-6.1 2-1.2 0.4-2.2 1-3.3 1.7-0.6 0.4-1.2 0.9-1.8 1.4-0.3 0.2-0.5 0.5-0.8 0.7-0.2 0.2 0-0.1 0 0.1-0.1 0.3-0.3 0.6-0.5 0.9 0 0 0.1-0.1 0.1-0.1 0 0.2 0 0.5 0 0.6 0.1 0.2 0.2 0.4 0.2 0.6 0.1 0.2 0.2 0.3 0.3 0.5 0.2 0.2 0.4 0.4 0.7 0.5 0.4 0.2 0.8 0.3 1.2 0.4 0.7 0.1 1.4 0.2 2.1 0.3 0.7 0 1.4 0.1 2 0.1 0.7 0 1.3 0 2 0 0.9-0.1 1.8-0.3 2.7-0.5 0.9-0.2 1.8-0.4 2.7-0.7 0.6-0.2 1.1-0.6 1.6-0.9 0.4-0.3 0.8-0.7 1.2-1 0.5-0.4 1.1-0.8 1.6-1.3 0.7-0.5 1.3-1 2-1.5 0.5-0.4 1.1-0.6 1.7-0.9 0.6-0.2 1.2-0.4 1.7-0.6 0.6-0.2 1.3-0.4 1.9-0.6 0.6-0.2 1.2-0.3 1.8-0.5 0.7-0.2 1.5-0.4 2.3-0.5 0.5-0.1 0.9-0.2 1.4-0.3 0.5-0.1 1.1-0.1 1.6 0 0.9 0.2 1.6 0.6 2.4 1.1 0.4 0.3 0.9 0.5 1.4 0.6 0.4 0.2 0.9 0.3 1.3 0.4 0.5 0.1 1 0.1 1.4 0.2 0.5 0.1 1 0 1.4-0.2 0.4-0.1 0.8-0.3 1.2-0.5 0.4-0.2 0.9-0.5 1.3-0.8 0.6-0.4 1.2-0.8 1.9-1.3 0.8-0.5 1.5-1 2.3-1.6 0.7-0.5 1.4-1 2.1-1.5 0.8-0.6 1.5-1.2 2.2-1.9 0.4-0.3 0.7-0.7 1.1-1 0.4-0.5 1-0.8 1.5-1.1 0.6-0.4 1.2-0.7 1.9-1 0.3-0.2 0.6-0.3 1-0.5 0.4-0.2 0.9-0.3 1.4-0.4 0.4 0 0.9-0.1 1.3-0.1 0.5 0 0.9 0 1.4 0 0.6 0.1 1.3 0.2 1.9 0.3 0.9 0.1 1.8 0.2 2.6 0.5 1.1 0.4 1.7 1.3 2.1 2.4 0.2 0.5 0.4 0.9 0.5 1.4 0 0.1 0.3 0.8 0.1 0.3-0.1-0.2-0.3-0.4-0.5-0.5 0.5 0.3 0.9 0.8 1.2 1.3 0.3 0.5 0.7 0.9 1 1.4 0.3 0.5 0.6 0.9 0.9 1.4 0.3 0.6 0.6 1.2 0.9 1.8 0.2 0.4 0.4 0.8 0.6 1.1 0.2 0.3 0.4 0.6 0 0.1-0.5-0.3-0.3-0.2 0.1-0.1 0.5 0.1 0.9 0.3 1.3 0.5 0.3 0.2 0.7 0.3 1 0.5 0.2 0.2 0.4 0.4 0.6 0.5 0.3 0.2 0.6 0.5 1 0.8 0.3 0.3 0.6 0.5 0.9 0.8 0.3 0.2 0.7 0.5 1 0.7 0.5 0.4 0.9 0.9 1.2 1.5 0.6 1 0.9 2.1 1.1 3.3 0.2 1.1 0.3 2.3 0.4 3.5 0 0.6 0.1 1.3 0.1 1.9 0 0.3 0 0.5 0 0.8 0 0.7-0.3 1.2-0.6 1.8-0.1 0.2-0.2 0.4-0.3 0.6 0 0 0 0 0 0.1 0.2-0.7 0.1-0.2 0.1 0.2 0 0.7 0 1.4 0 2.1 0 0.4 0 0.7 0 1.1 0.1 0.7 0.2 1.3 0.4 2 0.2 0.6 0.4 1.2 0.5 1.8 0.1 0.5 0.3 1 0.5 1.5 0.1 0.3 0.3 0.6 0.4 0.8 0.2 0.4 0.1 0.2-0.1-0.1 0 0-0.1-0.1-0.1-0.1 0.2 0.2 0.2 0.1-0.8-0.3 1.3 0.1 1.9 1.2 2.3 2.3 0.1 0.4 0.3 0.7 0.4 1.1 0.2 0.4 0.3 0.9 0.3 1.3 0.1 0.5 0.1 0.9 0.1 1.4 0 0.7 0 1.3 0 2 0 0.7 0 1.3 0 2 0.1 0.7 0.1 1.5 0.1 2.2 0 0.8 0 1.6 0.1 2.3 0 0.6 0 1.1 0 1.7 0 0.5 0 1 0 1.6 0 0.6 0 1.1 0 1.7 0 0.6 0.1 1.1 0.1 1.7 0 0.6 0.1 1.2 0.1 1.8 0 0.3 0 0.7 0 1 0 0.4 0 0.9 0 1.3 0 0.6 0 1.3 0 1.9 0 0.4 0 0.7 0 1.1-0.1-0.3 0.2 0 0.3 0.1 0.6 0.4 1.2 0.7 1.8 1.1 0.7 0.4 1.4 0.7 2.1 1 0.5 0.2 1 0.5 1.5 0.9 0.6 0.4 1 0.9 1.3 1.5 0.3 0.6 0.5 1.3 0.7 1.9 0.2 0.6 0.4 1.2 0.5 1.9 0.1 0.6 0.2 1.2 0.2 1.8 0 0.4 0 0.8 0.1 1.2 0.1 0.5-0.3-0.6-0.4-0.8 0.3 0.2 0.5 0.3 0.8 0.4 0.3 0.1 0.6 0.1 0.9 0.2 0.6 0 1.2-0.3 1.8-0.5 0.7-0.3 1.5-0.6 2.2-1 0.3-0.2-0.1 0.2 0.2-0.4 0.4-0.7 0.6-1.5 0.8-2.2 0.2-0.7 0.3-1.3 0.4-2 0.1-0.7 0.1-1.3 0.1-2 0-0.6 0-1.3 0-1.9 0-0.7 0-1.3-0.1-2 0-0.7 0-1.5 0-2.2 0-0.8 0-1.6 0-2.4 0-0.6 0-1.2 0-1.7 0-0.6-0.1-1.1-0.2-1.7-0.1-0.9-0.2-1.8-0.3-2.7-0.1-1-0.2-2-0.3-3-0.1-0.9-0.1-1.7-0.2-2.6 0-0.8 0-1.5-0.1-2.3 0-1 0.1-2.1 0.3-3.1 0.2-0.9 0.5-1.7 0.9-2.6 0.2-0.6 0.5-1.3 0.7-1.9 0.3-0.6 0.4-1.3 0.6-2 0.1-0.8 0.2-1.6 0.3-2.4 0-0.6 0.1-1.2 0-1.8-0.3-0.7-0.7-1.4-1-2.1-0.6-1.1-1.1-2.3-1.7-3.4-0.4-0.8-0.9-1.6-1.3-2.4-0.4-0.8-0.7-1.7-0.9-2.6-0.2-1-0.3-2-0.4-3-0.1-1.1-0.1-2.1-0.1-3.2 0-1.6 0.4-3.1 0.7-4.6 0.3-1.1 0.6-2.2 1-3.4 0.2-0.7 0.5-1.4 0.8-2.1 0.4-0.8 0.9-1.5 1.5-2.2 0.6-0.7 1.2-1.3 1.9-1.9 0.4-0.3 0.7-0.7 1.1-1.1 0.4-0.6 0.8-1.1 1.3-1.6 0.4-0.4 0.8-0.8 1.2-1.1 0.1-0.1 0.2-0.2 0.2-0.3 0.2-0.2 0.3-0.5 0.4-0.7 0.2-0.3 0.4-0.7 0.5-1.1 0.1-0.4 0.2-0.9 0.3-1.3 0.1-0.6 0.1-1.2 0.1-1.8 0-0.6 0-1.1 0-1.7 0-0.4 0-0.8 0-1.2 0-0.3-0.1-0.6-0.2-0.9-0.2-0.4-0.4-0.7-0.6-1.1-0.2-0.4-0.5-0.7-0.8-1-0.3-0.3-0.6-0.6-1-0.9-0.4-0.3-0.9-0.6-1.3-0.8-0.6-0.3-1.2-0.5-1.8-0.8-0.7-0.3-1.4-0.5-2-0.8-0.6-0.2-1.2-0.4-1.8-0.7-0.7-0.2-1.3-0.4-2-0.6-0.6-0.2-1.2-0.4-1.8-0.6-0.4-0.1-0.9-0.2-1.3-0.3-0.5-0.1-1-0.2-1.6-0.3-0.5-0.1-1-0.2-1.5-0.2-0.6 0-1.1-0.1-1.7-0.1-0.6 0-1.2 0-1.8 0-0.7 0-1.4 0-2.2 0-0.7 0-1.4 0-2.1 0-0.5 0-0.9 0-1.4 0-0.4 0-0.9 0.1-1.3 0.2-0.6 0.1-1.1 0.3-1.7 0.4-0.6 0.2-1.2 0.4-1.9 0.6-0.6 0.3-1.2 0.6-1.8 0.9-0.4 0.2-0.7 0.4-1.1 0.6-0.1 0.1-0.1 0.1-0.3 0.3-0.3 0.3-0.7 0.6-1 0.8-0.2 0.2-0.5 0.3-0.7 0.5-0.2 0.2-0.4 0.4-0.6 0.6-0.3 0.2-0.5 0.5-0.8 0.7-0.3 0.2-0.6 0.4-0.9 0.5-0.2 0.1-0.3 0.2-0.5 0.3-0.3 0.2-0.5 0.4-0.7 0.6-0.5 0.4-1.1 0.8-1.7 1.1-0.7 0.4-1.3 0.7-2 1-0.7 0.3-1.4 0.6-2.1 0.8-0.8 0.3-1.6 0.5-2.4 0.7-0.8 0.2-1.5 0.3-2.3 0.4-0.8 0.1-1.6 0.1-2.4 0.1-0.6 0-1.3 0-1.9 0-0.6 0-1.2-0.1-1.7-0.2-0.4-0.1-0.9-0.2-1.3-0.2-0.4 0-0.7-0.1-1.1-0.1-0.2 0-0.4 0-0.6 0-0.3 0-0.6 0-0.9 0-0.3 0-0.6 0-0.8 0-0.6 0-0.8 0.1 0-0.1 1-0.8 0.3 0.3 0.1 0.8-0.3 0.7-0.6 1.4-0.9 2.1-0.2 0.6-0.6 1.1-0.9 1.6-0.4 0.6-0.9 1.2-1.3 1.8-0.3 0.4-0.7 0.9-1.1 1.3-0.7 0.7-1.6 1.2-2.5 1.7-1.2 0.6-2.4 1-3.7 1.4-1.1 0.4-2.2 0.6-3.4 0.8-0.8 0.1-1.6 0.2-2.4 0.3-0.7 0.1-1.4 0.1-2.1 0.1-0.7 0-1.3 0-2 0-0.6 0-1.3 0.1-1.9 0.2-0.6 0.2-1.2 0.4-1.9 0.7-0.6 0.3-1.1 0.6-1.7 0.9-0.4 0.2-0.8 0.4-1.1 0.6-0.3 0.2-0.7 0.4-1 0.7-0.4 0.3-0.8 0.7-1.1 1-0.5 0.4-0.9 0.9-1.4 1.3-0.7 0.5-1.4 0.9-2.2 1.1-1.2 0.4-1.5 0.7-2.8 0-0.5 0.1-1.2-2.1-0.7-2.3 0.4-1.2 0.9-1.2 2.1-1.6 0.4-0.1 0.7-0.3 1-0.5 0.5-0.4 0.9-0.8 1.3-1.2 0.4-0.4 0.8-0.7 1.2-1 0.5-0.4 0.9-0.7 1.5-1.1 0.5-0.3 0.9-0.5 1.4-0.7 0.6-0.3 1.2-0.7 1.9-0.9 0.8-0.4 1.7-0.7 2.6-1 0.9-0.2 1.9-0.4 2.8-0.3 0.6 0 1.3 0 1.9 0 0.6 0 1.2 0 1.9-0.1 0.7-0.1 1.3-0.1 2-0.2 1-0.2 1.9-0.3 2.8-0.6 1-0.3 2.1-0.7 3-1.1 0.5-0.2 1-0.5 1.4-0.9 0.3-0.3 0.6-0.6 0.8-1 0.4-0.5 0.8-1 1.2-1.6 0.2-0.3 0.4-0.6 0.5-0.9 0.3-0.7 0.6-1.3 0.8-2 0.4-1.1 0.8-2.2 1.9-2.9 0.6-0.2 1.2-0.4 1.8-0.3 0.3 0 0.6 0 0.9 0 0.3 0 0.6 0 1 0 0.3 0 0.5 0 0.8 0 0.5 0 0.9 0.1 1.4 0.1 0.5 0.1 1 0.1 1.4 0.2 0.4 0.1 0.8 0.1 1.2 0.1 0.6 0 1.2 0 1.7 0 0.7 0 1.4 0 2.1-0.1 0.6-0.1 1.2-0.1 1.8-0.3 0.7-0.2 1.4-0.3 2.1-0.6 0.5-0.2 1.1-0.3 1.5-0.6 0.6-0.3 1.2-0.6 1.8-0.9 0.4-0.2 0.7-0.4 1-0.7 0.3-0.3 0.7-0.6 1-0.8 0.4-0.3 0.8-0.6 1.3-0.7 0.2-0.1 0.1-0.1 0 0 0.2-0.1 0.3-0.3 0.5-0.4 0.3-0.3 0.6-0.6 1-0.9 0.2-0.2 0.4-0.3 0.6-0.5 0.3-0.2 0.5-0.4 0.8-0.6 0.3-0.3 0.6-0.6 1-0.8 0.4-0.2 0.7-0.4 1.1-0.6 0.8-0.4 1.5-0.9 2.3-1.2 0.8-0.3 1.5-0.6 2.3-0.8 0.6-0.2 1.2-0.3 1.8-0.5 0.6-0.1 1.2-0.3 1.9-0.3 0.6 0 1.2-0.1 1.7-0.1 0.7 0 1.4 0 2.1 0 0.7 0 1.5 0 2.2 0 0.6 0 1.3 0 1.9 0 0.6 0 1.3 0.1 1.9 0.1 0.6 0.1 1.2 0.1 1.8 0.2 0.5 0.1 1.1 0.2 1.6 0.3 0.6 0.1 1.3 0.3 1.9 0.5 0.6 0.2 1.1 0.4 1.7 0.6 0.7 0.2 1.4 0.4 2.1 0.7 0.6 0.2 1.3 0.5 1.9 0.7 0.7 0.3 1.3 0.5 2 0.8 0.8 0.3 1.6 0.6 2.4 1 0.7 0.4 1.3 0.8 1.9 1.2 0.5 0.4 1 0.8 1.4 1.3 0.5 0.5 0.9 1 1.3 1.6 0.4 0.6 0.7 1.2 1 1.9 0.2 0.7 0.4 1.5 0.4 2.2 0 0.4 0 0.9 0 1.3 0 0.6 0 1.2 0 1.8 0 0.7-0.1 1.4-0.2 2.2-0.1 0.7-0.2 1.4-0.5 2.1-0.2 0.6-0.5 1.3-0.9 1.8-0.2 0.4-0.4 0.7-0.7 1.1-0.2 0.3-0.4 0.5-0.7 0.7-0.3 0.3-0.6 0.5-0.9 0.9-0.4 0.5-0.8 0.9-1.1 1.4-0.5 0.6-1 1.1-1.5 1.6-0.5 0.5-1 0.9-1.4 1.4-0.4 0.5-0.7 1-1 1.5-0.2 0.5-0.4 0.9-0.6 1.4-0.3 1-0.6 2.1-0.9 3.1-0.3 1.2-0.6 2.3-0.6 3.5 0 1 0 1.9 0.1 2.9 0.1 0.8 0.1 1.6 0.3 2.4 0.1 0.6 0.4 1.2 0.6 1.7 0.4 0.8 0.9 1.6 1.3 2.4 0.6 1.1 1.1 2.2 1.7 3.4 0.5 1 1.1 1.9 1.4 3 0.2 1 0.3 2 0.1 3-0.1 1-0.2 1.9-0.3 2.9-0.2 0.9-0.4 1.8-0.8 2.7-0.2 0.6-0.5 1.2-0.7 1.9-0.3 0.7-0.5 1.3-0.7 2-0.2 0.7-0.3 1.4-0.2 2.1 0 0.7 0 1.5 0.1 2.2 0 0.8 0.1 1.6 0.2 2.4 0.1 1 0.2 1.9 0.2 2.9 0.1 0.9 0.2 1.8 0.3 2.6 0.1 0.7 0.2 1.4 0.2 2.1 0 0.6 0 1.2 0 1.9 0 0.8 0 1.6 0 2.3 0 0.7 0 1.4 0 2.1 0 0.6 0 1.3 0.1 1.9 0 0.7 0 1.5 0 2.2 0 0.8-0.1 1.6-0.2 2.4-0.1 0.9-0.3 1.7-0.5 2.5-0.3 1.1-0.6 2.1-1.2 3.1-0.5 0.9-1.1 1.7-2.1 2.1-0.8 0.4-1.6 0.7-2.4 1-1.2 0.4-2.4 0.8-3.6 0.7-0.6-0.1-1.2-0.2-1.8-0.4-0.7-0.2-1.4-0.5-2-1-0.7-0.5-1.3-1.2-1.2-2.2 0-0.4 0-0.7-0.1-1.1 0-0.4-0.1-0.9-0.1-1.3-0.1-0.5-0.3-1-0.4-1.5-0.1-0.4-0.3-0.8-0.4-1.2 0 0 0 0 0 0-0.3-0.2-0.7-0.4-1-0.6-0.8-0.4-1.6-0.7-2.4-1.2-0.8-0.4-1.6-0.9-2.3-1.4-0.8-0.6-1.5-1.4-1.8-2.4-0.1-0.6-0.1-1.3-0.1-1.9 0-0.6 0-1.3 0-1.9 0-0.4 0-0.8 0-1.2 0-0.3 0-0.7 0-1 0-0.6 0-1.2-0.1-1.7 0-0.6-0.1-1.3-0.1-1.9 0-0.6 0-1.1 0-1.7 0-0.5 0-1 0-1.6 0-0.6 0-1.1 0-1.7 0-0.7 0-1.5-0.1-2.2 0-0.7-0.1-1.4-0.1-2.1 0-0.7-0.1-1.5-0.1-2.2 0-0.6 0-1.3 0-1.9 0-0.3 0-0.6-0.1-0.9 0-0.1 0-0.3-0.1-0.4-0.2-0.4-0.3-0.8-0.5-1.2-0.4-1.1 0.9 0.4 1.1 0.3-0.9-0.3-0.8-0.2-1.2-0.4-0.2-0.1-0.3-0.2-0.5-0.4-0.2-0.3-0.4-0.5-0.5-0.8-0.2-0.4-0.4-0.7-0.5-1.1-0.3-0.6-0.5-1.2-0.7-1.9-0.2-0.7-0.4-1.3-0.6-2-0.2-0.9-0.4-1.7-0.5-2.6-0.1-0.5-0.1-1-0.1-1.5 0-0.7 0-1.4 0-2.1 0-0.5 0-1.1 0.2-1.6 0.1-0.1 0.1-0.3 0.2-0.4 0.1-0.2 0.2-0.4 0.3-0.6 0.3-0.5 0.2-0.5 0.2 0.1 0-0.2 0-0.5 0-0.7 0-0.6-0.1-1.2-0.1-1.8-0.1-1-0.2-2.1-0.3-3.1-0.1-0.6-0.2-1.3-0.5-1.9-0.1-0.1-0.2-0.3-0.2-0.3-0.4-0.3-0.8-0.5-1.1-0.8-0.4-0.3-0.7-0.6-1.1-1-0.3-0.2-0.6-0.5-0.8-0.7 0 0-0.6-0.5-0.4-0.4-0.1-0.1-0.2-0.1-0.3-0.2-0.1-0.1-0.2-0.1-0.4-0.2-0.6-0.1-1.2-0.2-1.7-0.6-0.4-0.3-0.7-0.7-0.9-1.2-0.3-0.5-0.6-1-0.8-1.5-0.2-0.5-0.5-1-0.7-1.5-0.2-0.4-0.5-0.8-0.8-1.2-0.3-0.4-0.6-0.9-0.9-1.3-0.2-0.2-0.2-0.3 0-0.1-0.4-0.3-0.8-0.5-1-1-0.2-0.3-0.3-0.6-0.4-1-0.1-0.4-0.3-0.8-0.5-1.2-0.2-0.4 0-0.1 0.3-0.1-0.6-0.2-1.2-0.2-1.8-0.3-0.6-0.1-1.2-0.2-1.8-0.3-0.3 0-0.6 0-0.8 0-0.3 0-0.6 0-0.9 0 0 0 0 0 0 0-0.3 0.2-0.7 0.3-1 0.5-0.5 0.3-1.1 0.6-1.6 0.9-0.3 0.2-0.6 0.4-0.9 0.7-0.4 0.3-0.7 0.7-1.1 1-0.8 0.7-1.6 1.5-2.4 2.1-0.7 0.6-1.5 1.1-2.2 1.6-0.8 0.6-1.6 1.1-2.4 1.6-0.6 0.4-1.2 0.8-1.8 1.2-0.6 0.4-1.1 0.7-1.7 1.1-0.6 0.3-1.3 0.6-2 0.8-0.9 0.2-1.8 0.4-2.8 0.3-0.7-0.1-1.4-0.1-2-0.3-0.6-0.1-1.2-0.3-1.8-0.5-0.7-0.3-1.4-0.6-2-0.9-0.3-0.2-0.7-0.4-0.9-0.5-0.1 0-0.2 0-0.3 0-0.4 0.1-0.9 0.2-1.3 0.2-0.7 0.1-1.4 0.3-2 0.5-0.6 0.2-1.1 0.3-1.7 0.5-0.6 0.2-1.1 0.3-1.7 0.5-0.5 0.2-1 0.4-1.6 0.6-0.3 0.1-0.6 0.2-0.8 0.4-0.6 0.4-1.3 0.9-1.9 1.4-0.4 0.3-0.9 0.6-1.3 1-0.5 0.5-1 0.9-1.5 1.3-0.8 0.6-1.7 1.2-2.8 1.5-1 0.4-2.1 0.6-3.2 0.9-1.1 0.2-2.2 0.5-3.4 0.5-0.8 0-1.5 0-2.3 0-0.7 0-1.5-0.1-2.2-0.1-0.9-0.1-1.8-0.2-2.7-0.4-0.8-0.2-1.6-0.4-2.3-0.8-0.6-0.3-1.1-0.7-1.6-1.2-0.4-0.5-0.8-1-1.1-1.6-0.3-0.6-0.5-1.2-0.6-1.8 0-0.5 0-1 0-1.4 0.1-0.5 0.2-1 0.4-1.4 0.1-0.2 0.2-0.4 0.3-0.6 0.2-0.4 0.4-0.8 0.7-1.1 0.3-0.3 0.6-0.6 1-0.9 0.7-0.6 1.5-1.3 2.3-1.8 1.3-0.8 2.6-1.6 4.1-2.1 2.1-0.8 4.2-1.4 6.3-2.1 0.8-0.2 1.9 3.6 1.1 3.8z" class="a"/><path d="m526.2 277.2c-5 0.6-10.4 1.2-14 5-5.4 4.4-9.6 9.9-13.8 15.3-8.5 9.4-20.3 15.9-32.7 18.5-3.4 1.5-6.9 3.3-9.3 6.1 1.5 2.5 5.8 0.8 7.6 3.5 2.9 3.9 8.3 1.1 11.4-1.1 3.1-1.9 5.8-5.1 9.8-4 2.7 0.4 5.5 0.2 6.9-2.5 3.5-3 8.6-1.8 12.8-2.6 3.4-0.1 6.8-1 9-3.8 3.7-4.4 8.2-8.2 13.8-9.7 4.4-2 10.4-2.3 13.4-6.5 1.3-4.3 0.6-9.2-0.9-13.4-1.8-3.9-6.5-6.5-10.7-5.2-1.1 0.1-2.3 0.3-3.4 0.4z"/><path d="m508.5 334.2c-7.5-0.6-13.1 5-18.9 8.7-5.4 2.8-11.6 2.6-17.4 2-3.5 2.6-4.5 8.8-9.9 9.8-6.4 2.6-14.3 0.6-19.6 5.6-3.8 4.2-9.9 2.1-14.1 5.5-4.1 1-6 7.4-0.3 7.1 6.9 1.5 13.1-1.8 18.3-5.9 4.9-2.5 10.7-3.8 15.7-1.3 5.9 1 10.2-4 14.5-7.3 3.6-3.5 9.4-5.3 14-2.7 3.3 3.8 4.8 9.6 9.8 11.9 5.5 3 4.3 9.8 4.3 15-0.7 7.1 5.2 12.7 3.7 20 0.7 5.7-0.5 11.7 1.4 17.2 3.3 3 7.9 4.9 7.8 10.3 5.1 4.6 9.4-4.7 8-9.4 0.1-7.7-1.3-15.5-0.5-23.1 2.1-5.6 3.1-12.1-0.8-17.2-4.3-8.7-2.3-20.3 5.4-26.5 3.3-3.4 4.8-9.7 1.4-13.4-6.4-4.7-14.8-6.5-22.7-6.2z"/><path d="m577 303.9c-5.2 0.9-8.8 5.6-13.8 6.9-3.6 1.8-7.5 4.9-7.6 9.3-1.9 5.6-7 10.4-6.9 16.6 1.9 4.7 6.1 8.2 8.6 12.6 2.6 3.7 2.8 9.4-0.6 12.7-4.2 6.5-8.6 14.2-7 22.2 0.9 2.7 2.8 4.9 5 6.5 3.5-0.1 3.5-4.7 4.6-7.1 2.4-6.7 6.3-12.7 10.7-18.3 2.7-5.2-0.4-11.1 1-16.6 1.2-5.3 2.2-10.7 2.3-16.1 0.3-5.9 1.8-12.2 7-15.7 2.9-2.9 4.7-8.3 1.8-11.7-1.4-1.1-3.3-1.1-5-1.1z"/><path d="m456.7 321.8c-0.8 0-1.3 1.1-0.7 1.7 0.5 0.6 1.8 0.5 2-0.4 0.2-0.7-0.5-1.4-1.2-1.4z"/><path d="m558.1 308.9c-0.6 0.3-0.7 0.9-0.5 1.5 0.1 0.6 0.4 1.4 1.1 1.4 0.9 0.2 1.6-1 1.1-1.7-0.3-0.5-0.5-1.2-1.2-1.2-0.2-0.1-0.3 0-0.5 0.1z"/><path d="m509.6 418.2c-0.4 0.1-0.7 0.4-0.8 0.8 0 0.2 0 0.5 0 0.7 0.1 0.4 0.4 0.6 0.7 0.8 0.4 0.2 0.9 0 1.2-0.3 0.2-0.3 0.3-0.7 0.1-1.1-0.1-0.2-0.2-0.5-0.4-0.7-0.2-0.2-0.5-0.3-0.8-0.2z"/><path d="m453 726.7c2.3-12.3 7.4-23.8 10.6-35.9 2.1-6.8 4.6-13.4 7.5-19.9 3-7.5 6.2-15.1 8.1-23 1.7-2.9 8.7-0.7 7 2.9-3 11-7.6 21.4-12 31.9-3.6 9.5-5.9 19.3-9.4 28.8-1.8 5.4-3.6 10.8-4.7 16.4-2.1 1.3-5.5 0.7-7.1-1.3z"/><path d="m413.7 730c-5.8 15.1-11.7 30.1-18.9 44.6-4 7.9-6.5 16.4-10.2 24.4-2.1 4.4-3.2 9.3-5.9 13.5-3.3 0.7-7.4-2.1-4.8-5.7 3.4-9.1 7.6-17.9 10.9-27 4.5-10.4 9.7-20.4 13.9-30.9 3-7.1 5.8-14.4 8.7-21.6 2-0.5 5.6 0.6 6.3 2.7z"/><path d="m358.6 702.1c-11 16.8-19.2 35.1-27.3 53.4-3.9 9.6-7.4 19.4-12.3 28.6-7 14.5-14.4 28.9-22.6 42.8-4.6 7-8.7 14.4-13.3 21.4-6.9 4.3-5.8-7.8-1.7-10.3 7.6-12.6 15.4-25 21.9-38.2 5.6-10.4 10.7-21.1 15.6-31.8 5.2-14.3 11.6-28 18.2-41.7 4.4-9.3 9.5-18.2 15.1-26.7 2.4-3.2 5.5 0 6.5 2.5z"/><path d="m193.4 793.8c-11.4 14.8-24.6 28.1-36.8 42.1-9.4 10.5-19.7 20.2-30.7 29-3.3 2.4-5.9 6.2-9.7 7.7-6 1.2-3.1-6.7 0.2-8.2 10.7-9.6 22.2-18.4 32.1-29 10.6-11.7 21.6-23.1 32-35 3-3.4 5.7-7.1 9-10.3 1.6-0.2 4.1 2 4.1 3.6z"/><path d="m238.4 597.3c4.6-9.8 13.3-16.8 18.8-26 11.9-15.9 23.8-31.7 35.7-47.6-1.1-5.2 9.8-5.9 7.2-0.1-1.9 4.3-6.2 6.8-8.3 11.1-14.4 21.1-30.5 41.1-45.4 61.9-0.8 3.8-4.8 9.5-9 6.5-1-1.9 1.2-4.4 1-5.9z"/><path d="m269.1 458.6c5.1-4.4 10.8-7.8 16.4-11.4 7.6-4 14-9.6 20.5-15.2 5.2-3.9 10.4-7.8 16.1-10.8 2.5-1.8 4.3 2.4 4.7 4.3-1.3 1.8-3.6 2.8-5.4 4.2-5.4 3.7-10.8 7.4-15.7 11.8-5.5 4.7-11.5 8.9-17.9 12.4-4.9 3.2-10 6.2-14.5 9.9-2.1-0.6-3.8-2.7-4.5-4.8l0-0.3 0.1-0.2z"/><path d="m312.1 696c-6.5 10.9-10.3 23.2-16.2 34.5-9.3 18.3-21.3 35.4-35.7 50.1-1.7 2.6-4.5-0.2-5.7-2-0.9-2 1.9-3.5 2.8-5.1 15.2-16.5 27.8-35.4 36.9-56 3.9-8.6 7-17.8 12.3-25.7 2 0 5.5 2 5.6 4.1z"/><path d="m252 796.4c-14.8 17.5-30.1 34.7-45.7 51.6-4.1 4.2-8.2 8.6-13.2 11.7-4.9 0.7-3-6-0.2-7.5 6.1-7 12.9-13.4 19-20.3 11.8-13.1 23.3-26.4 34.8-39.7 2.6-0.8 4.9 1.9 5.3 4.2z"/><path d="m558.7 250.4c-1.7 0.1-3.4 0.1-5.1 0.2-1.1 0.1-2.3 0.2-3.4 0.3-0.7 0.1-1.4 0.2-2.1 0.3-0.6 0.1-1.3 0.2-2 0.3-0.5 0.1-1.1 0.2-1.6 0.3-0.5 0.1-1 0.2-1.4 0.4-0.6 0.2-1.1 0.4-1.7 0.6-0.6 0.2-1.1 0.5-1.7 0.8-0.6 0.3-1.3 0.6-2 0.9-0.6 0.2-1.2 0.5-1.8 0.8-0.9 0.4-1.8 0.7-2.6 1.1-1.2 0.5-2.4 1-3.6 1.5-1.4 0.5-2.7 1.1-3.9 1.8-1.6 0.9-3.1 2-4.5 3.1-1.5 1.1-2.9 2.4-4.7 3.1-0.9 0.8-4.6-3.4-3.7-4.2 1-1.8 2.7-3 4.3-4.2 1.7-1.3 3.4-2.6 5.3-3.7 1.5-0.9 3.1-1.6 4.8-2.2 1.1-0.4 2.2-0.9 3.3-1.3 0.9-0.4 1.8-0.8 2.7-1.1 0.7-0.3 1.3-0.6 2-0.8 0.5-0.2 1-0.4 1.5-0.7 0.7-0.4 1.5-0.7 2.2-1 0.7-0.3 1.5-0.6 2.2-0.8 0.6-0.2 1.3-0.4 2-0.5 0.7-0.1 1.4-0.3 2.1-0.4 0.6-0.1 1.2-0.2 1.9-0.3 0.8-0.1 1.6-0.3 2.5-0.3 1.3-0.1 2.5-0.2 3.8-0.3 1.7-0.1 3.4-0.1 5.1-0.2 1.4-0.1 1.7 6.7 0.3 6.7z"/><path d="m559.9 261.1c-1.9-0.3-3.9-0.2-5.8-0.1-2 0.3-4 0.5-6.1 0.2-1.2 0.1-1.8-5.6-0.6-5.8 2-0.8 4.1-1 6.2-1.2 2.4-0.2 4.8-0.2 7.2 0.2 1.4 0.2 0.5 6.8-0.9 6.6z"/><path d="m444.3 332.3c-1.7 0.7-3.3 1.5-4.8 2.4-1.6 0.9-3.1 2-4.6 3.2-1.9 1.6-3.7 3.3-5.6 5-2.1 2.1-4.2 4.1-6.4 6.1-1 0.9-2 1.6-3.2 2.2-0.9 0.7-4-3.5-3.1-4.1 0.8-0.9 1.6-1.7 2.6-2.4 2.1-1.8 4.1-3.8 6.1-5.8 1.8-2.1 3.6-4.1 5.6-5.9 1.7-1.4 3.5-2.7 5.5-3.8 1.9-1.1 3.8-2.1 5.8-2.8 1.3-0.5 3.5 5.5 2.2 5.9z"/><path d="m451 336.2c-2.4 1.2-4.6 2.7-6.8 4.2-1.2 0.5-4 3.3-5.3 3.3-0.6 0-1.2-0.3-1.8-0.5-0.4 0.3-1.8-1.7-1.4-2 0-0.6-0.1-1.3 0.1-1.9 0.5-1.2 4.1-2.9 5.1-3.9 2.5-1.6 5-3.3 7.6-4.6 1.1-0.5 3.6 4.8 2.5 5.3z"/><path d="m347.5 249.9c4.3-0.7 8.5-1.8 12.3-4 3.2-1.6 6.1-3.7 8.9-5.8 4.2-2.6 8-5.6 11.8-8.6 2-1 4.8-3.6 6.9-2 2.1 2.1 2.7 5.9-0.8 6.8-3.5 1.8-6.3 4.9-9.6 7-2.5 1.8-5.1 3.3-7.4 5.2-5.4 3.6-11.3 6.7-17.7 7.9-2.1 0.8-4.7 0.8-4.7-2.1-0.2-1.3-0.9-3.5 0.4-4.4z"/><path d="m318.3 344.8c3.6-2.1 7.4-4 9.9-7.4 2.5-3.1 5.2-5.9 7.4-9.1 2.4-3.1 4.9-6.2 7-9.5 2.5-3.5 5-7.2 8.1-10.3 1.6-1.4 3.6 0.9 4.8 1.9 1.9 1.4 0 3.3-1 4.6-4.4 5.1-7.8 11.1-12.2 16.3-2.1 2.9-4.3 5.7-6.7 8.4-2.6 3.3-5.5 6.4-9.2 8.4-1.6 0.9-3.2 2-4.9 2.8-1.8-0.7-2.6-2.8-3.3-4.5-0.1-0.5-0.4-1.2 0.1-1.6z"/><path d="m510.4 624.5c2.8-6.2 6.8-12.3 10.7-17.9 4.7-6.1 9-12.5 13.4-18.8 2.4-3.5 5-6.9 7.4-10.5 1.2-2.1 3.8-2.8 5.5-0.8 2.6 1.3 1.3 4.2-0.1 5.8-2.3 2.8-4.2 5.9-6.3 8.8-3.8 5.4-7.4 10.9-11.5 16.1-3.9 5.2-7.7 10.5-10.9 16.2-1.1 1.3-1.2 4.7-3.6 3.8-1.6-0.6-4-0.8-4.4-2.6z"/><path d="m607.8 549.1c2.9-4.6 6.4-8.7 10-12.7 5.9-6.8 11.8-13.7 17.1-21 1-1.1 2-2.5 3.3-3.2 0.9 0.2 1.8 0.3 2.7 0.5 0.7 0.5 0.9 1.5 1.4 2.2 0.8 1.1-0.6 2.3-1 3.4-2.5 3.9-5.5 7.4-8.3 11-4.8 5.9-10.1 11.5-15 17.3-1.7 2-3.1 4.3-4.7 6.4-1.9 0.1-3.5-1.3-4.9-2.5-0.3-0.4-0.9-0.9-0.6-1.5z"/><path d="m614.2 550.9c-0.9 1.5-1.3 2.5-3 3.3-0.3 0.6-3.2-0.6-2.9-1.2-0.6-1.9-0.2-2.8 0.5-4.6 0.5-1.2 6 1.4 5.5 2.6z"/><path d="m613.8 551.4c-0.8 1.5-1.6 3.1-2.3 4.6-0.5 1-0.9 2-1.2 3.1-0.2 0.6 0 1.1-0.3 1.6-0.8 0.4-1.7 0.8-2.5 1.2 0 0-0.1 0.1-0.2 0.1-0.9 0-1.9 0.1-2.8 0.1-1-1.5-0.8-3.2-0.4-4.8 0.4-1.4 1-2.7 1.6-4 0.8-1.6 1.7-3.3 2.6-4.9 0.6-1.2 6.1 1.9 5.4 3z"/><path d="m612.6 553.8c-0.7 0.9-0.3 0.4-1.5 1.1-0.4 0.9-4.7-0.9-4.3-1.8-0.2-1.8-0.3-1 0.1-2.5 0.7-1.2 6.3 2 5.7 3.2z"/><path d="m613.3 553.1c-0.7 1.2-1.4 2.5-2 3.7-0.3 0.6-0.5 1.2-0.7 1.8-0.1 0.4-0.2 0.9-0.2 1.4 0 0.3 0 0.5 0 0.8 0 0.2 0.1 0.3 0.1 0.5 0 0.2 0.1 0.5 0.1 0.7 0 0.1 0 0.3 0.1 0.4 0 0.2 0.1 0.4 0.2 0.6 0.1 0.3 0.2 0.5 0.4 0.7 0.3 0.5 0.6 1.1 1 1.6 0.4 0.6 0.6 1 0.5 1.7 0.8 1-4 4.6-4.8 3.6-0.8-0.4-1.3-0.9-1.7-1.7-0.4-0.7-0.8-1.3-1.2-2-0.3-0.6-0.6-1.1-0.8-1.7-0.1-0.4-0.3-0.9-0.4-1.3-0.1-0.4-0.2-0.8-0.2-1.2 0-0.2 0-0.3 0-0.5 0-0.4-0.1-0.8-0.1-1.2 0-0.5 0-1 0-1.4 0.1-0.9 0.2-1.7 0.4-2.6 0.3-1.1 0.7-2.3 1.2-3.3 0.7-1.3 1.4-2.6 2.1-3.9 0.7-1.3 6.7 2.1 6 3.4z"/></svg>